<svg width="439" height="132" viewBox="0 0 439 132" fill="none" xmlns="http://www.w3.org/2000/svg">
<path d="M6.18 89.82C14.03 110.83 31.83 125.19 52.16 129.48C52.39 129.53 52.62 129.57 52.84 129.62C52.84 129.62 53.4 129.62 53.57 129.05C53.84 128.13 53.19 127.94 53.19 127.94C34.21 123.34 19.66 110.84 12.41 91.42C10.52 86.35 9.33 81.24 8.79 76.2C5.84 72.61 3.65 69.06 2.2 65.7C1.95 73.69 3.21 81.86 6.18 89.82Z" fill="#096000"/>
<path d="M2.60001 60.45C4.08001 63.29 6.06001 66.14 8.48001 68.94C8.57001 63.81 9.33001 58.79 10.73 53.98C8.79001 51.43 7.18001 48.86 5.94001 46.28C4.29001 50.84 3.16001 55.6 2.60001 60.45Z" fill="#096000"/>
<path d="M12.03 33.86C13.36 35.97 15 38.08 16.91 40.16C18.71 37.25 20.77 34.48 23.1 31.9C21.25 29.68 19.76 27.45 18.65 25.25C16.2 27.94 13.97 30.82 12.03 33.86Z" fill="#096000"/>
<path d="M112.67 27.97C96.12 7.93 68.23 -0.480005 42.67 9.05999C35.83 11.62 29.71 15.26 24.42 19.72C25.7 21.78 27.39 23.84 29.43 25.87C34.68 21.56 40.81 17.99 47.75 15.4C71.44 6.54999 94.66 11.97 111.1 28.6C111.1 28.6 111.91 29.64 112.69 29.25C113.23 28.99 112.67 27.97 112.67 27.97Z" fill="#096000"/>
<path d="M430.71 49.33H429.18H396.33H377.84C374.49 49.24 365.93 51.67 363.57 60.59L356.67 86.27L354.92 92.8C353.89 96.47 354.82 99.28 356.67 101.12C358.39 102.83 360.91 103.73 363.41 103.73L396.33 103.83L414.8 103.89C419.48 103.89 427.56 99.9 429.13 92.64L437.83 60.5C439.59 53.99 437.26 49.33 430.71 49.33ZM413.21 62.34L405.6 90.65C404.76 94.03 401.69 96.54 398.19 96.45L396.33 96.44L383.83 96.4C380.17 96.4 378.61 93.98 379.43 90.95L386.95 62.63C387.55 59.96 390.25 56.76 394.39 56.81H396.33L408.87 56.79C410.79 56.72 414.35 58.38 413.21 62.34Z" fill="#096000"/>
<path d="M275.67 60.49C276.64 56.91 276.01 53.89 274.15 51.9C272.64 50.28 270.31 49.34 267.38 49.34H267.02H236.17H217.08L217.06 49.41L192.15 49.36L175.65 49.34C170.98 49.34 162.89 53.33 161.33 60.59L152.69 92.47L152.62 92.74C151.87 95.52 151.9 97.98 152.69 99.87C153.75 102.38 156.16 103.9 159.89 103.9H161.27H192.14H194.47L192.82 109.94H217.01L218.67 103.85L236.16 103.88L252.63 103.91C257.31 103.91 265.4 99.92 266.96 92.66L274.14 66.15L275.67 60.49ZM196.53 96.4L192.16 96.41H181.52C179.6 96.47 176.04 94.81 177.19 90.86L184.79 62.53C185.63 59.17 188.68 56.66 192.16 56.74H192.19L207.36 56.75L196.53 96.4ZM251.42 62.34L243.8 90.65C242.97 94.03 239.9 96.54 236.4 96.45H236.17L220.7 96.43L231.53 56.79H236.17L247.09 56.78C249.01 56.72 252.56 58.38 251.42 62.34Z" fill="#096000"/>
<path d="M152.89 60.93C153.53 58.54 153.43 56.41 152.7 54.66C151.45 51.64 148.38 49.77 144.24 49.77C122.71 49.77 104.78 49.67 83.1 49.67L81.05 57.12H124.48C126.4 57.06 129.97 58.82 128.81 62.78L126.01 73.19H86.77L84.74 80.64H124.01L121.2 91.08C120.55 93.71 118.56 95.81 116.06 96.57C115.32 96.71 114.55 96.78 113.76 96.78H70.24L68.15 104.23L129.86 104.3C134.52 104.3 142.61 100.31 144.18 93.05L152.69 61.62L152.89 60.93Z" fill="#096000"/>
<path d="M356.68 50.66L358.85 49.41H356.68H342.88L305.4 70.73C307.26 63.92 308.7 58.57 308.88 57.85C309.89 53.45 308.75 49.18 299.32 49.18C297.72 49.18 287.05 49.16 287.05 49.16L274.15 96.76L272.21 103.92H274.15H296.35C296.35 103.92 299.28 93.2 302.39 81.8L311.27 76.89L326.62 103.96H352.38L330.69 65.69L356.68 50.66Z" fill="#096000"/>
<path d="M214.91 120.7L214.61 122.35H211.04L209.35 131.25H207.36L209.35 120.7H214.91Z" fill="#096000"/>
<path d="M222.71 127.53H221.55L220.84 131.25H218.82L220.87 120.7H222.9H223.9C224.38 120.7 224.82 120.73 225.23 120.82C226.48 121.09 227.27 121.88 227.27 123.25C227.25 125.76 225.49 127.53 222.71 127.53ZM224.31 122.38C224.08 122.3 223.8 122.27 223.51 122.27H222.57L221.86 125.96H223.01C224.36 125.96 225.1 124.84 225.1 123.56C225.09 122.97 224.85 122.54 224.31 122.38Z" fill="#096000"/>
<path d="M241.67 120.7C240.39 123.19 239.01 125.64 237.39 128.2C235.8 130.77 235.09 131.43 233.34 131.43C232.93 131.43 232.45 131.37 232.06 131.28L232.35 129.72H233.35C234.14 129.72 234.47 129.49 235.03 128.59C234.21 126.17 233.52 123.51 232.94 120.7H235.07C235.39 122.56 235.83 124.54 236.32 126.17L236.4 126.61H236.42L236.65 126.17C237.63 124.49 238.66 122.54 239.55 120.7H241.67V120.7Z" fill="#096000"/>
<path d="M251.47 131.25L253.15 122.44H249.05L247.39 131.25H245.4L247.39 120.7H255.46L253.45 131.25H251.47Z" fill="#096000"/>
<path d="M266.4 131.25L268.08 122.44H263.99L262.33 131.25H260.34L262.33 120.7H270.4L268.39 131.25H266.4Z" fill="#096000"/>
<path d="M281.8 131.25C281.74 130.48 281.65 129.6 281.56 128.79H277.57C277.15 129.62 276.75 130.47 276.39 131.25H274.37C276.14 127.62 277.97 124.19 280.01 120.7H282.34C283.05 124.24 283.61 127.82 283.96 131.25H281.8ZM281.43 127.23C281.28 126.2 281.11 125.13 280.95 124.07C280.89 123.6 280.83 123.12 280.77 122.63H280.75C280.48 123.13 280.22 123.64 279.96 124.11C279.4 125.14 278.84 126.2 278.3 127.22H281.43V127.23Z" fill="#096000"/>
<path d="M304.19 131.25L302.2 126.29L301.31 127.12L300.52 131.25H298.52L300.55 120.7H302.53L301.74 124.84C303.16 123.48 304.57 122.07 305.99 120.7H308.51L303.83 124.96L306.47 131.25H304.19Z" fill="#096000"/>
<path d="M317.03 131.46C314.22 131.46 312.78 130.15 312.78 127.59C312.78 124.57 314.37 120.49 318.9 120.49C321.67 120.49 323.15 121.87 323.15 124.36C323.15 127.36 321.67 131.46 317.03 131.46ZM318.63 122.17C315.89 122.17 314.93 125.27 314.93 127.43C314.93 128.85 315.53 129.79 317.3 129.79C319.73 129.79 321 127.19 321 124.58C321 123.07 320.39 122.17 318.63 122.17Z" fill="#096000"/>
<path d="M338.11 131.25C338.64 128.36 339.09 125.43 339.3 122.83H339.28L335 131.25H333.11L332.16 122.83H332.13C331.39 125.4 330.65 128.38 330.07 131.25H328.23C328.91 127.9 329.89 124.16 330.98 120.7H333.84L334.7 128.26H334.72L338.54 120.7H341.49C341.2 124.19 340.73 127.8 340.1 131.25H338.11Z" fill="#096000"/>
<path d="M352.91 131.25L354.59 122.44H350.49L348.83 131.25H346.84L348.83 120.7H356.9L354.89 131.25H352.91Z" fill="#096000"/>
<path d="M368.31 131.25C368.25 130.48 368.16 129.6 368.07 128.79H364.08C363.66 129.62 363.26 130.47 362.9 131.25H360.88C362.65 127.62 364.48 124.19 366.52 120.7H368.85C369.56 124.24 370.12 127.82 370.47 131.25H368.31ZM367.95 127.23C367.8 126.2 367.63 125.13 367.47 124.07C367.41 123.6 367.35 123.12 367.29 122.63H367.27C367 123.13 366.74 123.64 366.48 124.11C365.92 125.14 365.36 126.2 364.82 127.22H367.95V127.23Z" fill="#096000"/>
<path d="M384.46 131.25H382.47L383.35 126.66H379.32L378.44 131.25H376.42L378.47 120.7H380.5L379.67 124.92H383.7L384.53 120.7H386.52L384.46 131.25Z" fill="#096000"/>
<path d="M397.7 131.25L398.77 125.58L399.09 124.07L397.88 125.55L393.07 131.25H391.33L393.32 120.7H395.28L394.19 126.37L393.87 127.88L395.08 126.4L399.9 120.7H401.62L399.63 131.25H397.7Z" fill="#096000"/>
<path d="M412.87 131.25L413.94 125.58L414.26 124.07L413.05 125.55L408.24 131.25H406.5L408.49 120.7H410.45L409.36 126.37L409.04 127.88L410.25 126.4L415.07 120.7H416.79L414.8 131.25H412.87ZM416.1 117.6C415.89 119.07 414.71 120.14 412.82 120.14C411.22 120.14 410.37 119.38 410.37 118.24C410.37 118.03 410.38 117.82 410.45 117.61H412.08C411.91 118.43 412.17 118.89 413 118.89C413.77 118.89 414.27 118.42 414.41 117.61H416.1V117.6Z" fill="#096000"/>
<path d="M5.52999 34.35C6.09999 53.44 28.13 72.08 55.64 82.97C56.53 83.32 55.91 83.09 56.81 83.43L70.17 67.86C37.01 58.84 6.92999 35.79 10.92 18.09C8.39999 23.22 5.31999 27.47 5.52999 34.35Z" fill="#096000"/>
<path d="M26.59 0.0899963C24.93 1.19 22.95 2.61999 21.42 4.64999C18.64 8.04999 17.41 12.7 18.4 17.7C20.94 30.48 37.15 44.81 60.8 54.44L69.09 45.42C38.39 35.97 13.46 13.15 26.59 0.0899963Z" fill="#A3A3A3"/>
<path d="M41.26 96.75C43 94.68 46.43 90.79 48.6 88.22C25.55 81.05 -2.68 55.75 2.42 42.94C-5.3 62.37 14.53 84.06 40.66 96.46L41.26 96.75Z" fill="#A3A3A3"/>
</svg>
